<svg xmlns="http://www.w3.org/2000/svg" width="540" height="540" viewBox="0 0 540 540"><defs><style>.cls-1{fill:#d0eae9;}.cls-2{fill:#a8d0d9;}.cls-3{fill:#8bc1cd;}.cls-4{fill:#7baeb7;}</style></defs><g id="Layer_2" data-name="Layer 2"><g id="Layer_2-2" data-name="Layer 2"><rect class="cls-1" width="506.67" height="33.33"/><rect class="cls-2" y="506.67" width="66.67" height="33.33"/><rect class="cls-2" y="473.33" width="33.33" height="33.33"/><rect class="cls-2" y="406.67" width="33.33" height="33.33"/><rect class="cls-3" x="66.67" y="506.67" width="33.33" height="33.33"/><rect class="cls-2" x="100" y="506.67" width="33.33" height="33.33"/><rect class="cls-3" x="133.33" y="506.67" width="340" height="33.33"/><rect class="cls-2" x="473.33" y="506.67" width="66.67" height="33.33"/><rect class="cls-2" x="506.67" y="473.33" width="33.33" height="33.33"/><rect class="cls-3" x="506.67" y="233.33" width="33.33" height="240"/><rect class="cls-4" x="506.67" y="200" width="33.33" height="33.33"/><rect class="cls-3" x="506.67" y="166.67" width="33.33" height="33.33"/><rect class="cls-4" x="506.67" y="66.67" width="33.33" height="100"/><rect class="cls-2" x="506.67" width="33.33" height="66.67"/><rect class="cls-1" x="133.33" y="66.67" width="33.33" height="33.33"/><rect class="cls-1" x="100" y="100" width="33.33" height="33.33"/><rect class="cls-2" x="66.67" y="133.33" width="33.33" height="33.33"/><rect class="cls-1" x="406.67" y="440" width="33.33" height="33.33"/><rect class="cls-1" x="440" y="406.67" width="33.33" height="33.33"/><rect class="cls-1" y="33.33" width="33.33" height="373.33"/><rect class="cls-1" y="440" width="33.33" height="33.33"/></g></g></svg>